<svg id="visual" viewBox="0 0 960 540" width="960" height="540" xmlns="http://www.w3.org/2000/svg" xmlns:xlink="http://www.w3.org/1999/xlink" version="1.1"><rect x="0" y="0" width="960" height="540" fill="#002233"></rect><path d="M0 468L22.8 468.5C45.7 469 91.3 470 137 448.8C182.7 427.7 228.3 384.3 274 376.2C319.7 368 365.3 395 411.2 403.2C457 411.3 503 400.7 548.8 388C594.7 375.3 640.3 360.7 686 367C731.7 373.3 777.3 400.7 823 418C868.7 435.3 914.3 442.7 937.2 446.3L960 450L960 541L937.2 541C914.3 541 868.7 541 823 541C777.3 541 731.7 541 686 541C640.3 541 594.7 541 548.8 541C503 541 457 541 411.2 541C365.3 541 319.7 541 274 541C228.3 541 182.7 541 137 541C91.3 541 45.7 541 22.8 541L0 541Z" fill="#0066FF" stroke-linecap="round" stroke-linejoin="miter"></path></svg>